<?xml version="1.0" encoding="utf-8"?>
<!-- Generator: Adobe Illustrator 22.0.0, SVG Export Plug-In . SVG Version: 6.00 Build 0)  -->
<svg version="1.1" id="Capa_1" xmlns="http://www.w3.org/2000/svg" xmlns:xlink="http://www.w3.org/1999/xlink" x="0px" y="0px"
	 viewBox="0 0 511.8 511.8" style="enable-background:new 0 0 511.8 511.8;" xml:space="preserve">
<style type="text/css">
	.st0{fill:#808080;}
</style>
<g>
	<g>
		<path class="st0" d="M330.8,340.6l-33.3-189c-0.4-2.2-2.5-3.7-4.6-3.2c-2.2,0.4-3.6,2.5-3.2,4.6l33.3,189c0.3,1.9,2,3.3,3.9,3.3
			c0.2,0,0.5,0,0.7-0.1C329.7,344.8,331.2,342.7,330.8,340.6z"/>
	</g>
</g>
<g>
	<g>
		<path class="st0" d="M335,364.2c-5.8-33.1-144.7-37.9-172.5-38.5c-2.3,0-4,1.7-4.1,3.9c-0.1,2.2,1.7,4,3.9,4.1
			c61.8,1.4,161.1,11.3,164.8,31.9c0.3,1.9,2,3.3,3.9,3.3c0.2,0,0.5,0,0.7-0.1C333.9,368.4,335.3,366.4,335,364.2z"/>
	</g>
</g>
<g>
	<g>
		<path class="st0" d="M293.3,127.9c-0.4-2.2-2.5-3.6-4.6-3.2c-2.2,0.4-3.6,2.5-3.2,4.6c6.3,35.8-101.5,74.4-143.5,86.2
			c-2.1,0.6-3.4,2.8-2.8,4.9c0.5,1.8,2.1,2.9,3.8,2.9c0.4,0,0.7,0,1.1-0.1c0.4-0.1,39.4-11.2,76.9-27.9
			C272.8,172.3,297.1,149.6,293.3,127.9z"/>
	</g>
</g>
<g>
	<g>
		<path class="st0" d="M309,125.2c-0.4-2.2-2.5-3.6-4.6-3.2l-15.7,2.8c-2.2,0.4-3.6,2.5-3.2,4.6c0.3,1.9,2,3.3,3.9,3.3
			c0.2,0,0.5,0,0.7-0.1l15.7-2.8C308,129.4,309.4,127.3,309,125.2z"/>
	</g>
</g>
<g>
	<g>
		<path class="st0" d="M350.7,361.4L309,125.2c-0.4-2.2-2.5-3.6-4.6-3.2c-2.2,0.4-3.6,2.5-3.2,4.6l41.7,236.3c0.3,1.9,2,3.3,3.9,3.3
			c0.2,0,0.5,0,0.7-0.1C349.6,365.7,351.1,363.6,350.7,361.4z"/>
	</g>
</g>
<g>
	<g>
		<path class="st0" d="M350.7,361.4c-0.4-2.2-2.5-3.7-4.6-3.2l-15.7,2.8c-2.2,0.4-3.6,2.5-3.2,4.6c0.3,1.9,2,3.3,3.9,3.3
			c0.2,0,0.5,0,0.7-0.1l15.7-2.8C349.6,365.7,351.1,363.6,350.7,361.4z"/>
	</g>
</g>
<g>
	<g>
		<path class="st0" d="M166.3,329c-0.4-2.2-2.4-3.6-4.6-3.2L79,340.3L61,237.9l82.7-14.6c2.2-0.4,3.6-2.5,3.2-4.6
			c-0.4-2.2-2.5-3.7-4.6-3.2l-86.6,15.3c-2.2,0.4-3.6,2.5-3.2,4.6l19.4,110.2c0.3,1.9,2,3.3,3.9,3.3c0.2,0,0.5,0,0.7-0.1l86.6-15.3
			C165.3,333.2,166.7,331.1,166.3,329z"/>
	</g>
</g>
<g>
	<g>
		<path class="st0" d="M79.7,344.2L60.3,234c-0.2-1.2-1-2.3-2.1-2.9c-1.1-0.6-2.4-0.6-3.6,0L2.2,256.6c-1.6,0.8-2.5,2.5-2.2,4.3
			l13.9,78.7c0.3,1.7,1.7,3.1,3.5,3.3l57.9,6c0.1,0,0.3,0,0.4,0c1.1,0,2.2-0.5,2.9-1.3C79.6,346.7,79.9,345.5,79.7,344.2z
			 M21.3,335.2L8.5,262.4l44.9-21.8l17.6,99.8L21.3,335.2z"/>
	</g>
</g>
<g>
	<g>
		<path class="st0" d="M163.6,313.2l-13.9-78.8c-0.4-2.2-2.5-3.7-4.6-3.2c-2.2,0.4-3.6,2.5-3.2,4.6l13.9,78.8c0.3,1.9,2,3.3,3.9,3.3
			c0.2,0,0.5,0,0.7-0.1C162.5,317.5,164,315.4,163.6,313.2z"/>
	</g>
</g>
<g>
	<g>
		<path class="st0" d="M48.3,259.2c-1-1.9-3.5-2.7-5.4-1.6l-22.2,12c-1.9,1-2.7,3.5-1.6,5.4c0.7,1.3,2.1,2.1,3.5,2.1
			c0.6,0,1.3-0.2,1.9-0.5l22.2-12C48.6,263.5,49.3,261.1,48.3,259.2z"/>
	</g>
</g>
<g>
	<g>
		<path class="st0" d="M56.5,320.1l-25-3.7c-2.2-0.3-4.2,1.2-4.5,3.4c-0.3,2.2,1.2,4.2,3.4,4.5l25,3.7c0.2,0,0.4,0,0.6,0
			c1.9,0,3.7-1.4,4-3.4C60.1,322.5,58.6,320.4,56.5,320.1z"/>
	</g>
</g>
<g>
	<g>
		<path class="st0" d="M54.2,291.9c-0.4-2.2-2.5-3.6-4.6-3.2L26,292.8c-2.2,0.4-3.6,2.5-3.2,4.6c0.3,1.9,2,3.3,3.9,3.3
			c0.2,0,0.5,0,0.7-0.1l23.6-4.2C53.2,296.1,54.6,294.1,54.2,291.9z"/>
	</g>
</g>
<g>
	<g>
		<path class="st0" d="M83.2,225.9c-0.4-2.2-2.5-3.7-4.6-3.2l-15.8,2.8c-2.2,0.4-3.6,2.5-3.2,4.6c0.3,1.9,2,3.3,3.9,3.3
			c0.2,0,0.5,0,0.7-0.1l15.8-2.8C82.1,230.1,83.6,228,83.2,225.9z"/>
	</g>
</g>
<g>
	<g>
		<path class="st0" d="M197.5,460.5l-40.3-90.3c-0.9-2-3.3-2.9-5.3-2c-2,0.9-2.9,3.3-2,5.3l40.3,90.3c0.7,1.5,2.1,2.4,3.7,2.4
			c0.5,0,1.1-0.1,1.6-0.3C197.5,464.9,198.4,462.5,197.5,460.5z"/>
	</g>
</g>
<g>
	<g>
		<path class="st0" d="M150.3,468.8L110,378.5c-0.9-2-3.3-2.9-5.3-2c-2,0.9-2.9,3.3-2,5.3l40.3,90.3c0.7,1.5,2.1,2.4,3.7,2.4
			c0.5,0,1.1-0.1,1.6-0.4C150.3,473.2,151.2,470.9,150.3,468.8z"/>
	</g>
</g>
<g>
	<g>
		<path class="st0" d="M205.7,460.1c-0.4-2.2-2.5-3.7-4.6-3.2l-63,11.1c-2.2,0.4-3.6,2.5-3.2,4.6c0.3,1.9,2,3.3,3.9,3.3
			c0.2,0,0.5,0,0.7-0.1l63-11.1C204.6,464.3,206.1,462.2,205.7,460.1z"/>
	</g>
</g>
<g>
	<g>
		<path class="st0" d="M91.8,366.5l-1.6-8.9c-0.4-2.2-2.5-3.7-4.6-3.2c-2.2,0.4-3.6,2.5-3.2,4.6l1.6,8.9c0.3,1.9,2,3.3,3.9,3.3
			c0.2,0,0.5,0,0.7-0.1C90.7,370.7,92.2,368.6,91.8,366.5z"/>
	</g>
</g>
<g>
	<g>
		<path class="st0" d="M170.6,352.8c-0.4-2.2-2.4-3.6-4.6-3.3l-78.8,13.6c-2.2,0.4-3.6,2.4-3.3,4.6c0.3,1.9,2,3.3,3.9,3.3
			c0.2,0,0.5,0,0.7-0.1l78.8-13.6C169.5,357.1,170.9,355,170.6,352.8z"/>
	</g>
</g>
<g>
	<g>
		<path class="st0" d="M170.6,352.8l-1.4-7.9c-0.4-2.2-2.5-3.6-4.6-3.2c-2.2,0.4-3.6,2.5-3.2,4.6l1.4,7.9c0.3,1.9,2,3.3,3.9,3.3
			c0.2,0,0.5,0,0.7-0.1C169.5,357.1,170.9,355,170.6,352.8z"/>
	</g>
</g>
<g>
	<g>
		<path class="st0" d="M363.8,84L363.8,84c-2.3,0-4,1.8-4,4s1.8,4,4,4c2.2,0,4-1.8,4-4S366,84,363.8,84z"/>
	</g>
</g>
<g>
	<g>
		<path class="st0" d="M387.8,84L387.8,84c-2.3,0-4,1.8-4,4s1.8,4,4,4c2.2,0,4-1.8,4-4C391.8,85.8,390,84,387.8,84z"/>
	</g>
</g>
<g>
	<g>
		<path class="st0" d="M427.6,323.9c-28.7,0-52,23.3-52,52s23.3,52,52,52c28.7,0,52-23.3,52-52C479.5,347.2,456.2,323.9,427.6,323.9
			z M427.6,419.9c-24.3,0-44-19.7-44-44c0-24.3,19.7-44,44-44c24.2,0,44,19.7,44,44C471.5,400.1,451.8,419.9,427.6,419.9z"/>
	</g>
</g>
<g>
	<g>
		<path class="st0" d="M375.6,60c-22,0-40,17.9-40,40s17.9,40,40,40s40-17.9,40-40C415.6,78,397.6,60,375.6,60z M375.6,132
			c-17.6,0-32-14.3-32-32s14.3-32,32-32c17.6,0,32,14.3,32,32S393.2,132,375.6,132z"/>
	</g>
</g>
<g>
	<g>
		<path class="st0" d="M439.8,156c-39.7,0-72,32.3-72,72s32.3,72,72,72c39.7,0,72-32.3,72-72S479.5,156,439.8,156z M439.8,291.9
			c-35.3,0-64-28.7-64-64s28.7-64,64-64c35.3,0,64,28.7,64,64S475.1,291.9,439.8,291.9z"/>
	</g>
</g>
<g>
	<g>
		<path class="st0" d="M438.2,354.6c-3.9,0-7.7,1.3-10.7,3.7c-3-2.4-6.7-3.7-10.7-3.7c-9.5,0-17.3,7.8-17.3,17.3
			c0,21,25.3,32.5,26.4,33c0.5,0.2,1.1,0.3,1.6,0.3c0.6,0,1.1-0.1,1.6-0.3c1.1-0.5,26.4-12,26.4-33
			C455.5,362.3,447.8,354.6,438.2,354.6z M427.5,396.8c-5-2.6-20-11.6-20-24.9c0-5.1,4.2-9.3,9.3-9.3c2.9,0,5.7,1.4,7.5,3.8
			c0.8,1,1.9,1.6,3.2,1.6c0,0,0,0,0,0c1.3,0,2.5-0.6,3.2-1.6c1.8-2.4,4.5-3.8,7.4-3.8c5.1,0,9.3,4.2,9.3,9.3
			C447.5,385.1,432.6,394.1,427.5,396.8z"/>
	</g>
</g>
<g>
	<g>
		<path class="st0" d="M470.6,213.1c-0.8-0.7-1.8-1.2-2.8-1.2h-4v-20c0-2.2-1.8-4-4-4h-8c-1.6,0-3.1,1-3.7,2.5
			c-0.1,0.2-6.3,15.2-14.9,22.4c-8,6.8-13.4,7.1-13.4,7.1c-2.2,0-4,1.8-4,4v24c0,2.2,1.8,4,4,4h6.3l6.8,6.8c0.8,0.7,1.8,1.2,2.8,1.2
			h32c1.1,0,2.1-0.4,2.8-1.2C480.2,249.2,480.2,222.7,470.6,213.1z M465.9,252h-28.5l-6.8-6.8c-0.8-0.7-1.8-1.2-2.8-1.2h-4v-16.7
			c3.3-0.9,8.4-3.1,14.6-8.3c7.9-6.6,13.7-18,16-23h1.4v20c0,2.2,1.8,4,4,4h6.2C471,227.1,471,244.9,465.9,252z"/>
	</g>
</g>
<g>
	<g>
		<path class="st0" d="M419.8,212h-24c-2.2,0-4,1.8-4,4v40c0,2.2,1.8,4,4,4h24c2.2,0,4-1.8,4-4v-40C423.8,213.8,422,212,419.8,212z
			 M415.8,252h-16v-32h16V252z"/>
	</g>
</g>
<g>
	<g>
		<path class="st0" d="M387.7,108.1c-1.9,0.1-4,1.7-4.1,3.8c0,0.7-0.6,4.1-8,4.1c-7.3,0-7.9-3.4-8-4.1c-0.1-2.2-1.8-3.9-4-3.9
			c-2.2,0-4,1.8-4,4c0,4.2,3.3,12,16,12c12.7,0,16-7.8,16-12C391.6,109.9,389.9,108.2,387.7,108.1z"/>
	</g>
</g>
<g>
	<g>
		<path class="st0" d="M479.8,35.9c-17.6,0-32,14.3-32,32s14.3,32,32,32c17.6,0,32-14.3,32-32C511.8,50.3,497.4,35.9,479.8,35.9z
			 M479.8,91.9c-13.2,0-24-10.8-24-24s10.8-24,24-24s24,10.8,24,24S493,91.9,479.8,91.9z"/>
	</g>
</g>
<g>
	<g>
		<path class="st0" d="M507.8,79.9c-2.2,0-4,1.8-4,4c0,13.2-10.8,24-24,24s-24-10.8-24-24c0-2.2-1.8-4-4-4s-4,1.8-4,4
			c0,17.6,14.3,32,32,32c17.6,0,32-14.3,32-32C511.8,81.7,510,79.9,507.8,79.9z"/>
	</g>
</g>
<g>
	<g>
		<path class="st0" d="M479.8,51.9c-2.2,0-4,1.8-4,4v24c0,2.2,1.8,4,4,4s4-1.8,4-4v-24C483.8,53.7,482,51.9,479.8,51.9z"/>
	</g>
</g>
<g>
	<g>
		<path class="st0" d="M491.8,63.9l-24,0c-2.2,0-4,1.8-4,4c0,2.2,1.8,4,4,4l24,0c2.2,0,4-1.8,4-4C495.8,65.7,494,63.9,491.8,63.9z"
			/>
	</g>
</g>
<g>
	<g>
		<path class="st0" d="M451.8,63.9c-2.2,0-4,1.8-4,4v16c0,2.2,1.8,4,4,4s4-1.8,4-4v-16C455.8,65.7,454,63.9,451.8,63.9z"/>
	</g>
</g>
<g>
	<g>
		<path class="st0" d="M507.8,63.9c-2.2,0-4,1.8-4,4v16c0,2.2,1.8,4,4,4s4-1.8,4-4v-16C511.8,65.7,510,63.9,507.8,63.9z"/>
	</g>
</g>
</svg>
